<?xml version="1.0" encoding="UTF-8" standalone="no"?>
<svg
   xmlns:dc="http://purl.org/dc/elements/1.1/"
   xmlns:cc="http://creativecommons.org/ns#"
   xmlns:rdf="http://www.w3.org/1999/02/22-rdf-syntax-ns#"
   xmlns:svg="http://www.w3.org/2000/svg"
   xmlns="http://www.w3.org/2000/svg"
   xmlns:sodipodi="http://sodipodi.sourceforge.net/DTD/sodipodi-0.dtd"
   xmlns:inkscape="http://www.inkscape.org/namespaces/inkscape"
   fill="#000000"
   height="24"
   viewBox="0 0 24 24"
   width="24"
   id="svg2"
   version="1.1"
   inkscape:version="0.91 r13725"
   sodipodi:docname="add.svg"
   inkscape:export-filename="..\add.png"
   inkscape:export-xdpi="240"
   inkscape:export-ydpi="240">
  <metadata
     id="metadata12">
    <rdf:RDF>
      <cc:Work
         rdf:about="">
        <dc:format>image/svg+xml</dc:format>
        <dc:type
           rdf:resource="http://purl.org/dc/dcmitype/StillImage" />
      </cc:Work>
    </rdf:RDF>
  </metadata>
  <defs
     id="defs10" />
  <sodipodi:namedview
     pagecolor="#ffffff"
     bordercolor="#666666"
     borderopacity="1"
     objecttolerance="10"
     gridtolerance="10"
     guidetolerance="10"
     inkscape:pageopacity="0"
     inkscape:pageshadow="2"
     inkscape:window-width="1680"
     inkscape:window-height="1028"
     id="namedview8"
     showgrid="false"
     inkscape:zoom="2.4583333"
     inkscape:cx="-144.46358"
     inkscape:cy="90.380567"
     inkscape:window-x="1912"
     inkscape:window-y="22"
     inkscape:window-maximized="1"
     inkscape:current-layer="svg2" />
  <path
     d="M0 0h24v24H0z"
     fill="none"
     id="path4" />
  <path
     d="m 13.19894,6.0052964 -2.397881,0 0,4.7957626 -4.7957626,0 0,2.397881 4.7957626,0 0,4.795763 2.397881,0 0,-4.795763 4.795763,0 0,-2.397881 -4.795763,0 0,-4.7957626 z M 12,0.010593 C 5.3818472,0.010593 0.010593,5.3818472 0.010593,12 0.010593,18.618152 5.3818472,23.989407 12,23.989407 18.618152,23.989407 23.989407,18.618152 23.989407,12 23.989407,5.3818472 18.618152,0.010593 12,0.010593 Z m 0,21.580932 C 6.7126714,21.591525 2.4084744,17.287328 2.4084744,12 2.4084744,6.7126714 6.7126714,2.4084744 12,2.4084744 c 5.287328,0 9.591525,4.304197 9.591525,9.5915256 0,5.287328 -4.304197,9.591525 -9.591525,9.591525 z"
     id="path6"
     inkscape:connector-curvature="0"
     style="fill:#217821" />
</svg>
