<?xml version="1.0" encoding="UTF-8" standalone="no"?>
<svg
   xmlns:dc="http://purl.org/dc/elements/1.1/"
   xmlns:cc="http://creativecommons.org/ns#"
   xmlns:rdf="http://www.w3.org/1999/02/22-rdf-syntax-ns#"
   xmlns:svg="http://www.w3.org/2000/svg"
   xmlns="http://www.w3.org/2000/svg"
   xmlns:sodipodi="http://sodipodi.sourceforge.net/DTD/sodipodi-0.dtd"
   xmlns:inkscape="http://www.inkscape.org/namespaces/inkscape"
   fill="#000000"
   height="24"
   viewBox="0 0 24 24"
   width="24"
   id="svg2"
   version="1.1"
   inkscape:version="0.91 r13725"
   sodipodi:docname="guarantor.svg"
   inkscape:export-filename="..\guarantor.png"
   inkscape:export-xdpi="240"
   inkscape:export-ydpi="240">
  <metadata
     id="metadata12">
    <rdf:RDF>
      <cc:Work
         rdf:about="">
        <dc:format>image/svg+xml</dc:format>
        <dc:type
           rdf:resource="http://purl.org/dc/dcmitype/StillImage" />
      </cc:Work>
    </rdf:RDF>
  </metadata>
  <defs
     id="defs10" />
  <sodipodi:namedview
     pagecolor="#ffffff"
     bordercolor="#666666"
     borderopacity="1"
     objecttolerance="10"
     gridtolerance="10"
     guidetolerance="10"
     inkscape:pageopacity="0"
     inkscape:pageshadow="2"
     inkscape:window-width="1680"
     inkscape:window-height="1028"
     id="namedview8"
     showgrid="false"
     inkscape:zoom="9.8333333"
     inkscape:cx="-9.8732958"
     inkscape:cy="16.27911"
     inkscape:window-x="1912"
     inkscape:window-y="22"
     inkscape:window-maximized="1"
     inkscape:current-layer="svg2" />
  <path
     d="m 15.413629,15.37973 c 2.371985,0 4.293186,-1.9212 4.293186,-4.293185 0,-2.3719846 -1.921201,-4.293185 -4.293186,-4.293185 -2.371984,0 -4.293185,1.9212004 -4.293185,4.293185 0,2.371985 1.921201,4.293185 4.293185,4.293185 z m 0,2.146593 c -2.8657,0 -8.58637,1.438218 -8.58637,4.293186 l 0,2.146592 17.172741,0 0,-2.146592 c 0,-2.854968 -5.720668,-4.293186 -8.58637,-4.293186 z"
     id="path4"
     inkscape:connector-curvature="0"
     style="fill:#4d75e1;fill-opacity:1" />
  <path
     d="M0 0h24v24H0z"
     fill="none"
     id="path6" />
  <rect
     style="fill:#4d75e1;fill-opacity:1"
     id="rect4134"
     width="26.440678"
     height="10.372882"
     x="-68.94915"
     y="-11.898307" />
  <rect
     style="fill:#193ea1;fill-opacity:1"
     id="rect4136"
     width="26.440678"
     height="10.169491"
     x="-68.94915"
     y="1.3220342" />
  <rect
     style="fill:#d3edff;fill-opacity:1"
     id="rect4138"
     width="26.44068"
     height="10.779662"
     x="-68.94915"
     y="-25.118645" />
  <g
     id="g4147"
     transform="scale(0.02158369,0.02158369)">
    <path
       style="fill:#666666"
       inkscape:connector-curvature="0"
       id="path6-1"
       d="M 512,320 512,0 0,0 l 0,320 66.562,0 c 1.75,5.594 4.313,10.969 7.828,16 -6.719,9.625 -10.391,20.375 -10.391,32 0,11.625 3.672,22.375 10.391,32 -6.719,9.625 -10.391,20.375 -10.391,32 0,47.125 59.219,80 144,80 84.781,0 144,-32.875 144,-80 0,-11.625 -3.656,-22.375 -10.375,-32 0,0 -0.031,0 -0.031,0.031 C 348.312,390.406 352,379.625 352,368 c 0,-11.625 -3.656,-22.375 -10.375,-32 0,0 -0.031,0 -0.031,0.031 3.5,-5.031 6.094,-10.406 7.844,-16.031 L 512,320 Z M 66.562,288 32,288 32,32 l 448,0 0,256 -130.563,0 c -1.75,-5.625 -4.313,-11 -7.844,-16.031 0,0.031 0.031,0.031 0.031,0.031 L 416,272 c 0,-26.531 21.5,-48 48,-48 L 464,96 C 437.5,96 416,74.531 416,48 L 293.968,48 C 318.906,69.688 336,111.438 336,160 c 0,34.188 -8.595,64.813 -22.313,87.625 C 288.187,232.813 251.578,224 208,224 c -7.188,0 -13.922,0.563 -20.734,1 0.031,0 0.047,0 0.063,0 -7.156,-18.969 -11.328,-41.125 -11.328,-65 0,-48.563 17.125,-90.313 42,-112 l -122,0 c 0,26.531 -21.5,48 -48,48 l 0,128 c 20.25,0 37.5,12.563 44.547,30.313 C 79.718,263.844 70.562,275.125 66.562,288 Z M 368,160 c 0,-13.25 10.75,-24 24,-24 13.25,0 24,10.75 24,24 0,13.25 -10.75,24 -24,24 -13.25,0 -24,-10.75 -24,-24 z m -37.125,100.25 c -0.469,-0.438 -0.75,-0.938 -1.25,-1.375 0.5,0.438 0.781,0.938 1.25,1.375 z M 96,160 c 0,-13.25 10.75,-24 24,-24 13.25,0 24,10.75 24,24 0,13.25 -10.75,24 -24,24 -13.25,0 -24,-10.75 -24,-24 z m 112,320 c -61.859,0 -112,-21.5 -112,-48 0,-3.5 0.969,-6.875 2.625,-10.156 C 124.203,438.125 162.125,448 208,448 c 45.875,0 83.813,-9.875 109.375,-26.156 1.656,3.281 2.625,6.656 2.625,10.156 0,26.5 -50.125,48 -112,48 z m 0,-64 c -61.859,0 -112,-21.5 -112,-48 0,-3.5 0.969,-6.875 2.625,-10.156 C 124.203,374.125 162.125,384 208,384 c 45.875,0 83.813,-9.875 109.375,-26.156 1.656,3.281 2.625,6.656 2.625,10.156 0,26.5 -50.125,48 -112,48 z m 0,-64 c -61.859,0 -112,-21.5 -112,-48 0,-26.5 50.141,-48 112,-48 61.875,0 112,21.5 112,48 0,26.5 -50.125,48 -112,48 z" />
  </g>
</svg>
