<?xml version="1.0" encoding="UTF-8" standalone="no"?>
<svg
   xmlns:dc="http://purl.org/dc/elements/1.1/"
   xmlns:cc="http://creativecommons.org/ns#"
   xmlns:rdf="http://www.w3.org/1999/02/22-rdf-syntax-ns#"
   xmlns:svg="http://www.w3.org/2000/svg"
   xmlns="http://www.w3.org/2000/svg"
   xmlns:sodipodi="http://sodipodi.sourceforge.net/DTD/sodipodi-0.dtd"
   xmlns:inkscape="http://www.inkscape.org/namespaces/inkscape"
   fill="#000000"
   height="24"
   viewBox="0 0 24 24"
   width="24"
   id="svg2"
   version="1.1"
   inkscape:version="0.91 r13725"
   sodipodi:docname="owner.svg"
   inkscape:export-filename="..\owner.png"
   inkscape:export-xdpi="240"
   inkscape:export-ydpi="240">
  <metadata
     id="metadata12">
    <rdf:RDF>
      <cc:Work
         rdf:about="">
        <dc:format>image/svg+xml</dc:format>
        <dc:type
           rdf:resource="http://purl.org/dc/dcmitype/StillImage" />
      </cc:Work>
    </rdf:RDF>
  </metadata>
  <defs
     id="defs10" />
  <sodipodi:namedview
     pagecolor="#ffffff"
     bordercolor="#666666"
     borderopacity="1"
     objecttolerance="10"
     gridtolerance="10"
     guidetolerance="10"
     inkscape:pageopacity="0"
     inkscape:pageshadow="2"
     inkscape:window-width="1680"
     inkscape:window-height="1028"
     id="namedview8"
     showgrid="false"
     inkscape:zoom="9.8333333"
     inkscape:cx="-12.254235"
     inkscape:cy="10.104504"
     inkscape:window-x="1912"
     inkscape:window-y="22"
     inkscape:window-maximized="1"
     inkscape:current-layer="svg2" />
  <path
     d="m 15.413629,15.37973 c 2.371985,0 4.293186,-1.9212 4.293186,-4.293185 0,-2.3719846 -1.921201,-4.293185 -4.293186,-4.293185 -2.371984,0 -4.293185,1.9212004 -4.293185,4.293185 0,2.371985 1.921201,4.293185 4.293185,4.293185 z m 0,2.146593 c -2.8657,0 -8.58637,1.438218 -8.58637,4.293186 l 0,2.146592 17.172741,0 0,-2.146592 c 0,-2.854968 -5.720668,-4.293186 -8.58637,-4.293186 z"
     id="path4"
     inkscape:connector-curvature="0"
     style="fill:#4d75e1;fill-opacity:1" />
  <path
     d="M0 0h24v24H0z"
     fill="none"
     id="path6" />
  <rect
     style="fill:#4d75e1;fill-opacity:1"
     id="rect4134"
     width="26.440678"
     height="10.372882"
     x="-68.94915"
     y="-11.898307" />
  <rect
     style="fill:#193ea1;fill-opacity:1"
     id="rect4136"
     width="26.440678"
     height="10.169491"
     x="-68.94915"
     y="1.3220342" />
  <rect
     style="fill:#d3edff;fill-opacity:1"
     id="rect4138"
     width="26.44068"
     height="10.779662"
     x="-68.94915"
     y="-25.118645" />
  <g
     id="g4152"
     transform="matrix(0.02449843,0,0,0.02449843,6.2781662,5.6851925)">
    <path
       id="path22"
       d="m -150.50712,168.60744 317.283,0 0,-271.521 -317.283,0 0,271.521 z m 160.676001,-244.063999 114.912999,99.66 -28.474999,0 0,119.996999 -67.117,0 0,-84.404999 -42.711,0 0,84.404999 -63.05,0 0,-119.995999 -29.491001,0 115.931001,-99.661 z"
       style="fill:#666666"
       inkscape:connector-curvature="0" />
    <polygon
       id="polygon24"
       points="474.453,95.325 474.453,63.8 107.34,63.8 107.34,0.75 37.171,0.75 37.171,511.25 107.34,511.25 107.34,95.325 "
       style="fill:#666666"
       transform="translate(-293.43912,-232.81356)" />
  </g>
</svg>
