<?xml version="1.0" encoding="UTF-8" standalone="no"?>
<!-- Generator: Adobe Illustrator 15.0.2, SVG Export Plug-In  -->

<svg
   xmlns:dc="http://purl.org/dc/elements/1.1/"
   xmlns:cc="http://creativecommons.org/ns#"
   xmlns:rdf="http://www.w3.org/1999/02/22-rdf-syntax-ns#"
   xmlns:svg="http://www.w3.org/2000/svg"
   xmlns="http://www.w3.org/2000/svg"
   xmlns:sodipodi="http://sodipodi.sourceforge.net/DTD/sodipodi-0.dtd"
   xmlns:inkscape="http://www.inkscape.org/namespaces/inkscape"
   version="1.1"
   x="0px"
   y="0px"
   width="512px"
   height="512px"
   viewBox="-0.188 0 512 512"
   enable-background="new -0.188 0 512 512"
   xml:space="preserve"
   id="svg2"
   inkscape:version="0.91 r13725"
   sodipodi:docname="property.svg"
   inkscape:export-filename="..\property.png"
   inkscape:export-xdpi="11.25"
   inkscape:export-ydpi="11.25"><metadata
     id="metadata28"><rdf:RDF><cc:Work
         rdf:about=""><dc:format>image/svg+xml</dc:format><dc:type
           rdf:resource="http://purl.org/dc/dcmitype/StillImage" /></cc:Work></rdf:RDF></metadata><sodipodi:namedview
     pagecolor="#ffffff"
     bordercolor="#666666"
     borderopacity="1"
     objecttolerance="10"
     gridtolerance="10"
     guidetolerance="10"
     inkscape:pageopacity="0"
     inkscape:pageshadow="2"
     inkscape:window-width="1920"
     inkscape:window-height="1018"
     id="namedview26"
     showgrid="false"
     inkscape:zoom="0.4609375"
     inkscape:cx="-445.83051"
     inkscape:cy="-14.019233"
     inkscape:window-x="-8"
     inkscape:window-y="-8"
     inkscape:window-maximized="1"
     inkscape:current-layer="svg2" /><defs
     id="defs4" /><path
     display="none"
     fill="#666666"
     d="M512,320V0H0v320h66.562c1.75,5.594,4.313,10.969,7.828,16  c-6.719,9.625-10.391,20.375-10.391,32s3.672,22.375,10.391,32c-6.719,9.625-10.391,20.375-10.391,32c0,47.125,59.219,80,144,80  s144-32.875,144-80c0-11.625-3.656-22.375-10.375-32c0,0-0.031,0-0.031,0.031C348.312,390.406,352,379.625,352,368  s-3.656-22.375-10.375-32c0,0-0.031,0-0.031,0.031c3.5-5.031,6.094-10.406,7.844-16.031H512z M66.562,288H32V32h448v256H349.437  c-1.75-5.625-4.313-11-7.844-16.031c0,0.031,0.031,0.031,0.031,0.031H416c0-26.531,21.5-48,48-48V96c-26.5,0-48-21.469-48-48  H293.968C318.906,69.688,336,111.438,336,160c0,34.188-8.595,64.813-22.313,87.625C288.187,232.813,251.578,224,208,224  c-7.188,0-13.922,0.563-20.734,1c0.031,0,0.047,0,0.063,0c-7.156-18.969-11.328-41.125-11.328-65c0-48.563,17.125-90.313,42-112  h-122c0,26.531-21.5,48-48,48v128c20.25,0,37.5,12.563,44.547,30.313C79.718,263.844,70.562,275.125,66.562,288z M368,160  c0-13.25,10.75-24,24-24s24,10.75,24,24s-10.75,24-24,24S368,173.25,368,160z M330.875,260.25c-0.469-0.438-0.75-0.938-1.25-1.375  C330.125,259.313,330.406,259.813,330.875,260.25z M96,160c0-13.25,10.75-24,24-24s24,10.75,24,24s-10.75,24-24,24S96,173.25,96,160  z M208,480c-61.859,0-112-21.5-112-48c0-3.5,0.969-6.875,2.625-10.156C124.203,438.125,162.125,448,208,448  s83.813-9.875,109.375-26.156C319.031,425.125,320,428.5,320,432C320,458.5,269.875,480,208,480z M208,416  c-61.859,0-112-21.5-112-48c0-3.5,0.969-6.875,2.625-10.156C124.203,374.125,162.125,384,208,384s83.813-9.875,109.375-26.156  C319.031,361.125,320,364.5,320,368C320,394.5,269.875,416,208,416z M208,352c-61.859,0-112-21.5-112-48s50.141-48,112-48  c61.875,0,112,21.5,112,48S269.875,352,208,352z"
     id="path6" /><path
     display="none"
     fill="#666666"
     d="M459.887,51.925H51.737c-28.061,0-51.019,22.958-51.019,51.019v306.111  c0,28.061,22.958,51.021,51.019,51.021h408.15c28.061,0,51.019-22.96,51.019-51.021V102.943  C510.906,74.883,487.948,51.925,459.887,51.925z M459.887,409.055H51.737V102.943h408.15V409.055z M230.302,309.568H102.755v45.918  h127.547V309.568z M230.302,233.042H102.755v45.916h127.547V233.042z M230.302,156.514H102.755v45.916h127.547V156.514z   M406.317,319.773c0,0-43.365-11.351-43.365-33.616c0-21.229,28.06-30.157,28.06-73.523c0-35.218-10.701-56.121-45.916-56.121  c-35.225,0-45.917,20.903-45.917,56.121c0,43.366,28.05,52.294,28.05,73.523c0,22.266-43.355,33.616-43.355,33.616  c-2.551,0-2.551,35.713-2.551,35.713h127.547C408.869,355.486,408.869,319.773,406.317,319.773z"
     id="path8" /><rect
     x="73.997"
     y="191.071"
     display="none"
     fill="#666666"
     width="256.569"
     height="25.698"
     id="rect10" /><rect
     x="73.997"
     y="128.119"
     display="none"
     fill="#666666"
     width="256.569"
     height="25.7"
     id="rect12" /><path
     display="none"
     fill="#666666"
     d="M504.208,130.885l-42.442-36.697c-5.808-5.064-14.063-5.171-18.317-0.319l-26.572,30.656  l63.717,55.187l26.572-30.679C511.42,144.203,510.038,135.905,504.208,130.885z"
     id="path14" /><path
     display="none"
     fill="#666666"
     d="M409.9,132.566l-8.596,9.956V42.469H1.982v427.063h399.322V271.19l72.228-83.374  L409.9,132.566z M370.435,439.215H32.872V84.166h337.563v93.97l-74.439,85.948H73.997v25.679h199.746l-2.787,3.233l63.568,55.209  l35.891-41.423v132.433H370.435z"
     id="path16" /><polygon
     display="none"
     fill="#666666"
     points="243.957,382.902 247.192,385.753 327.375,356.523 263.721,301.293 "
     id="polygon18" /><path
     display="none"
     fill="#666666"
     d="M126.481,331.887c22.508,0,40.761,18.231,40.761,40.762c0,22.509-18.252,40.74-40.761,40.74  c-22.509,0-40.763-18.231-40.763-40.74C85.718,350.118,103.972,331.887,126.481,331.887z"
     id="path20" /><g
     id="g4156"
     style="fill:#4d75e1"><path
       id="path22"
       d="M142.932,401.421h317.283V129.9H142.932V401.421z M303.608,157.357l114.913,99.66h-28.475v119.997h-67.117  v-84.405h-42.711v84.405h-63.05V257.018h-29.491L303.608,157.357z"
       fill="#666666"
       style="fill:#4d75e1" /><polygon
       id="polygon24"
       points="107.34,63.8 107.34,0.75 37.171,0.75 37.171,511.25 107.34,511.25 107.34,95.325 474.453,95.325   474.453,63.8 "
       fill="#666666"
       style="fill:#4d75e1" /></g></svg>