<?xml version="1.0" encoding="UTF-8" standalone="no"?>
<svg
   xmlns:dc="http://purl.org/dc/elements/1.1/"
   xmlns:cc="http://creativecommons.org/ns#"
   xmlns:rdf="http://www.w3.org/1999/02/22-rdf-syntax-ns#"
   xmlns:svg="http://www.w3.org/2000/svg"
   xmlns="http://www.w3.org/2000/svg"
   xmlns:sodipodi="http://sodipodi.sourceforge.net/DTD/sodipodi-0.dtd"
   xmlns:inkscape="http://www.inkscape.org/namespaces/inkscape"
   fill="#000000"
   height="24"
   viewBox="0 0 24 24"
   width="24"
   id="svg2"
   version="1.1"
   inkscape:version="0.91 r13725"
   sodipodi:docname="tenant.svg"
   inkscape:export-filename="..\tenant.png"
   inkscape:export-xdpi="240"
   inkscape:export-ydpi="240">
  <metadata
     id="metadata12">
    <rdf:RDF>
      <cc:Work
         rdf:about="">
        <dc:format>image/svg+xml</dc:format>
        <dc:type
           rdf:resource="http://purl.org/dc/dcmitype/StillImage" />
      </cc:Work>
    </rdf:RDF>
  </metadata>
  <defs
     id="defs10" />
  <sodipodi:namedview
     pagecolor="#ffffff"
     bordercolor="#666666"
     borderopacity="1"
     objecttolerance="10"
     gridtolerance="10"
     guidetolerance="10"
     inkscape:pageopacity="0"
     inkscape:pageshadow="2"
     inkscape:window-width="1680"
     inkscape:window-height="1028"
     id="namedview8"
     showgrid="false"
     inkscape:zoom="9.8333333"
     inkscape:cx="-21.031554"
     inkscape:cy="12.621138"
     inkscape:window-x="1912"
     inkscape:window-y="22"
     inkscape:window-maximized="1"
     inkscape:current-layer="svg2" />
  <path
     d="m 15.413629,15.37973 c 2.371985,0 4.293186,-1.9212 4.293186,-4.293185 0,-2.3719846 -1.921201,-4.293185 -4.293186,-4.293185 -2.371984,0 -4.293185,1.9212004 -4.293185,4.293185 0,2.371985 1.921201,4.293185 4.293185,4.293185 z m 0,2.146593 c -2.8657,0 -8.58637,1.438218 -8.58637,4.293186 l 0,2.146592 17.172741,0 0,-2.146592 c 0,-2.854968 -5.720668,-4.293186 -8.58637,-4.293186 z"
     id="path4"
     inkscape:connector-curvature="0"
     style="fill:#4d75e1;fill-opacity:1" />
  <path
     d="M0 0h24v24H0z"
     fill="none"
     id="path6" />
  <rect
     style="fill:#4d75e1;fill-opacity:1"
     id="rect4134"
     width="26.440678"
     height="10.372882"
     x="-68.94915"
     y="-11.898307" />
  <rect
     style="fill:#193ea1;fill-opacity:1"
     id="rect4136"
     width="26.440678"
     height="10.169491"
     x="-68.94915"
     y="1.3220342" />
  <rect
     style="fill:#d3edff;fill-opacity:1"
     id="rect4138"
     width="26.44068"
     height="10.779662"
     x="-68.94915"
     y="-25.118645" />
  <g
     transform="matrix(0.02451265,0,0,0.02451265,-0.04858407,-1.0410276)"
     id="g4161">
    <rect
       style="fill:#666666"
       id="rect10"
       height="25.698"
       width="256.569"
       y="191.071"
       x="73.997002" />
    <rect
       style="fill:#666666"
       id="rect12"
       height="25.700001"
       width="256.569"
       y="128.119"
       x="73.997002" />
    <path
       style="fill:#666666"
       inkscape:connector-curvature="0"
       id="path14"
       d="M 504.208,130.885 461.766,94.188 c -5.808,-5.064 -14.063,-5.171 -18.317,-0.319 l -26.572,30.656 63.717,55.187 26.572,-30.679 c 4.254,-4.83 2.872,-13.128 -2.958,-18.148 z" />
    <path
       style="fill:#666666"
       inkscape:connector-curvature="0"
       id="path16"
       d="m 409.9,132.566 -8.596,9.956 0,-100.053 -399.322,0 0,427.063 399.322,0 0,-198.342 72.228,-83.374 -63.632,-55.25 z m -39.465,306.649 -337.563,0 0,-355.049 337.563,0 0,93.97 -74.439,85.948 -221.999,0 0,25.679 199.746,0 -2.787,3.233 63.568,55.209 35.891,-41.423 0,132.433 0.02,0 z" />
    <polygon
       style="fill:#666666"
       id="polygon18"
       points="243.957,382.902 247.192,385.753 327.375,356.523 263.721,301.293 " />
    <path
       style="fill:#666666"
       inkscape:connector-curvature="0"
       id="path20"
       d="m 126.481,331.887 c 22.508,0 40.761,18.231 40.761,40.762 0,22.509 -18.252,40.74 -40.761,40.74 -22.509,0 -40.763,-18.231 -40.763,-40.74 0,-22.531 18.254,-40.762 40.763,-40.762 z" />
  </g>
</svg>
